<?xml version="1.0" encoding="UTF-8"?>
<!DOCTYPE svg PUBLIC "-//W3C//DTD SVG 1.1//EN" "http://www.w3.org/Graphics/SVG/1.1/DTD/svg11.dtd">
<!-- Creator: CorelDRAW -->
<svg xmlns="http://www.w3.org/2000/svg" xml:space="preserve" width="6.82666in" height="6.82666in" style="shape-rendering:geometricPrecision; text-rendering:geometricPrecision; image-rendering:optimizeQuality; fill-rule:evenodd; clip-rule:evenodd"
viewBox="0 0 6.82666 6.82666"
 xmlns:xlink="http://www.w3.org/1999/xlink">
 <defs>
  <style type="text/css">
   <![CDATA[
    .fil0 {fill:#66BB6A}
    .fil1 {fill:#FFFFFE}
    .fil2 {fill:#FFFFFE;fill-rule:nonzero}
   ]]>
  </style>
 </defs>
 <g id="Layer_x0020_1">
  <metadata id="CorelCorpID_0Corel-Layer"/>
  <rect class="fil0" width="6.82666" height="6.82666" rx="0.853335" ry="0.853335"/>
  <g id="_486076848">
   <path id="_512193792" class="fil1" d="M1.60805 2.02401l4.18407 0 0.148705 0 -0.0478701 0.140835 -0.572791 1.68516 -0.0246457 0.0725039 -0.076189 0 -3.15974 0 -0.0817008 0 -0.0212165 -0.0791693 -0.451535 -1.68516 -0.0359488 -0.134169 0.138866 0zm0.683732 1.28265l2.67333 0 -0.0739921 0.213339 -2.54153 0 -0.0578071 -0.213339zm-0.115098 -0.424764l2.93575 0 -0.0739921 0.213339 -2.80395 0 -0.0578071 -0.213339zm-0.11613 -0.428563l3.19863 0 0 0.00546457 -0.0720984 0.207874 -3.06872 0 -0.0578071 -0.213339z"/>
   <polygon id="_512193264" class="fil2" points="0.885843,1.51369 1.4713,1.51369 1.553,1.51369 1.57422,1.59286 2.26067,4.15474 5.21719,4.15474 5.14478,4.36807 2.17897,4.36807 2.09727,4.36807 2.07605,4.28891 1.38959,1.72703 0.885843,1.72703 "/>
   <path id="_512193216" class="fil2" d="M2.42267 4.51418c0.110276,0 0.21013,0.0447087 0.282409,0.116988 0.0722835,0.0722835 0.116992,0.172134 0.116992,0.282409 0,0.110283 -0.0447087,0.210134 -0.116992,0.282409 -0.0722756,0.0722835 -0.172134,0.116992 -0.282409,0.116992 -0.110276,0 -0.210126,-0.0447087 -0.282409,-0.116992 -0.0722795,-0.0722795 -0.116988,-0.172134 -0.116988,-0.282409 0,-0.110276 0.0447087,-0.210126 0.116988,-0.282406 0.0722835,-0.0722835 0.172134,-0.116992 0.282409,-0.116992zm0.131575 0.267823c-0.0336614,-0.0336614 -0.080185,-0.0544843 -0.131575,-0.0544843 -0.0513898,0 -0.0979094,0.0208228 -0.131575,0.0544882 -0.0336614,0.0336614 -0.0544843,0.0801811 -0.0544843,0.131571 0,0.0513898 0.0208228,0.0979134 0.0544843,0.131575 0.0336654,0.0336654 0.080185,0.0544882 0.131575,0.0544882 0.0513898,0 0.0979134,-0.0208268 0.131575,-0.0544882 0.0336614,-0.0336614 0.0544882,-0.0801811 0.0544882,-0.131575 0,-0.0513898 -0.0208228,-0.0979094 -0.0544882,-0.131575z"/>
   <path id="_491182512" class="fil2" d="M5.01949 4.51418c0.110276,0 0.210126,0.0447087 0.282409,0.116992 0.0722795,0.0722795 0.116988,0.17213 0.116988,0.282406 0,0.110276 -0.0447087,0.21013 -0.116988,0.282409 -0.0722835,0.0722835 -0.172134,0.116992 -0.282409,0.116992 -0.110276,0 -0.21013,-0.0447087 -0.282409,-0.116988 -0.0722795,-0.0722835 -0.116988,-0.172134 -0.116988,-0.282413 0,-0.110276 0.0447087,-0.210126 0.116988,-0.282409 0.0722795,-0.0722795 0.172134,-0.116988 0.282409,-0.116988zm0.131575 0.267827c-0.0336654,-0.0336654 -0.080185,-0.0544882 -0.131575,-0.0544882 -0.0513898,0 -0.0979134,0.0208228 -0.131575,0.0544843 -0.0336614,0.0336614 -0.0544843,0.080185 -0.0544843,0.131575 0,0.0513898 0.0208228,0.0979173 0.0544843,0.131579 0.0336614,0.0336614 0.080185,0.0544843 0.131575,0.0544843 0.0513898,0 0.0979094,-0.0208228 0.131575,-0.0544882 0.0336614,-0.0336614 0.0544843,-0.080185 0.0544843,-0.131575 0,-0.0513898 -0.0208228,-0.0979094 -0.0544843,-0.131571z"/>
  </g>
 </g>
</svg>
