<svg xmlns="http://www.w3.org/2000/svg" xmlns:xlink="http://www.w3.org/1999/xlink" version="1.1" width="256" height="256" viewBox="0 0 256 256" xml:space="preserve">

<defs>
</defs>
<g style="stroke: none; stroke-width: 0; stroke-dasharray: none; stroke-linecap: butt; stroke-linejoin: miter; stroke-miterlimit: 10; fill: none; fill-rule: nonzero; opacity: 1;" transform="translate(1.4065934065934016 1.4065934065934016) scale(2.81 2.81)" >
	<path d="M 84.2 60.906 h -0.901 c -0.563 -10.968 -5.738 -21.082 -14.395 -27.99 c -0.864 -0.689 -2.12 -0.548 -2.812 0.315 c -0.688 0.863 -0.548 2.122 0.315 2.811 c 7.7 6.146 12.325 15.12 12.883 24.864 H 38.47 c -1.104 0 -2 0.896 -2 2 s 0.896 2 2 2 h 42.88 H 84.2 c 0.992 0 1.8 0.807 1.8 1.799 s -0.808 1.8 -1.8 1.8 H 5.8 c -0.992 0 -1.8 -0.808 -1.8 -1.8 s 0.808 -1.799 1.8 -1.799 H 8.65 h 19.596 c 1.104 0 2 -0.896 2 -2 s -0.896 -2 -2 -2 H 10.708 c 1.04 -18.013 16.023 -32.35 34.292 -32.35 c 4.923 0 9.675 1.019 14.124 3.028 c 1.008 0.455 2.192 0.007 2.646 -1 c 0.455 -1.007 0.008 -2.191 -0.999 -2.646 c -2.783 -1.256 -5.673 -2.153 -8.64 -2.711 v -0.603 c 0 -3.932 -3.199 -7.13 -7.131 -7.13 s -7.13 3.199 -7.13 7.13 v 0.606 C 20.757 28.464 7.622 43.092 6.703 60.906 H 5.8 c -3.198 0 -5.8 2.602 -5.8 5.799 c 0 3.198 2.602 5.8 5.8 5.8 h 78.4 c 3.198 0 5.8 -2.602 5.8 -5.8 C 90 63.508 87.398 60.906 84.2 60.906 z M 41.87 24.625 c 0 -1.726 1.404 -3.13 3.13 -3.13 c 1.727 0 3.131 1.404 3.131 3.13 v 0.069 c -1.037 -0.083 -2.079 -0.138 -3.131 -0.138 c -1.055 0 -2.097 0.055 -3.13 0.138 V 24.625 z" style="stroke: none; stroke-width: 1; stroke-dasharray: none; stroke-linecap: butt; stroke-linejoin: miter; stroke-miterlimit: 10; fill: rgb(0,0,0); fill-rule: nonzero; opacity: 1;" transform=" matrix(1 0 0 1 0 0) " stroke-linecap="round" />
	<path d="M 18.607 53.872 c -0.257 0 -0.519 -0.051 -0.771 -0.156 c -1.019 -0.427 -1.499 -1.598 -1.072 -2.617 c 3.506 -8.375 10.481 -14.723 19.139 -17.415 c 1.055 -0.327 2.176 0.261 2.503 1.316 c 0.328 1.055 -0.261 2.175 -1.316 2.503 c -7.524 2.34 -13.588 7.859 -16.637 15.141 C 20.132 53.41 19.389 53.872 18.607 53.872 z" style="stroke: none; stroke-width: 1; stroke-dasharray: none; stroke-linecap: butt; stroke-linejoin: miter; stroke-miterlimit: 10; fill: rgb(0,0,0); fill-rule: nonzero; opacity: 1;" transform=" matrix(1 0 0 1 0 0) " stroke-linecap="round" />
	<path d="M 72.232 56.148 c -0.846 0 -1.632 -0.541 -1.904 -1.389 c -0.94 -2.925 -2.372 -5.646 -4.256 -8.088 c -0.675 -0.874 -0.514 -2.13 0.361 -2.805 c 0.873 -0.675 2.13 -0.514 2.805 0.362 c 2.168 2.809 3.815 5.94 4.898 9.307 c 0.338 1.052 -0.24 2.179 -1.292 2.517 C 72.641 56.117 72.435 56.148 72.232 56.148 z" style="stroke: none; stroke-width: 1; stroke-dasharray: none; stroke-linecap: butt; stroke-linejoin: miter; stroke-miterlimit: 10; fill: rgb(0,0,0); fill-rule: nonzero; opacity: 1;" transform=" matrix(1 0 0 1 0 0) " stroke-linecap="round" />
</g>
</svg>